<svg xmlns="http://www.w3.org/2000/svg" width="26" height="19" viewBox="0 0 26 19" fill="none">
  <path d="M18 16.2499V18.7499H0.5V16.2499C0.5 16.2499 0.5 11.2499 9.25 11.2499C18 11.2499 18 16.2499 18 16.2499ZM13.625 4.37494C13.625 3.50965 13.3684 2.66379 12.8877 1.94432C12.4069 1.22486 11.7237 0.664104 10.9242 0.332971C10.1248 0.00183751 9.24515 -0.0848021 8.39648 0.0840083C7.54781 0.252819 6.76826 0.669497 6.15641 1.28135C5.54455 1.89321 5.12787 2.67276 4.95906 3.52142C4.79025 4.37009 4.87689 5.24976 5.20803 6.04918C5.53916 6.84861 6.09992 7.53189 6.81938 8.01262C7.53885 8.49335 8.38471 8.74994 9.25 8.74994C10.4103 8.74994 11.5231 8.28901 12.3436 7.46854C13.1641 6.64806 13.625 5.53527 13.625 4.37494ZM17.925 11.2499C18.6934 11.8446 19.3222 12.6005 19.7671 13.4643C20.212 14.3282 20.4621 15.279 20.5 16.2499V18.7499H25.5V16.2499C25.5 16.2499 25.5 11.7124 17.925 11.2499ZM16.75 -5.63466e-05C15.8896 -0.00484724 15.0481 0.252388 14.3375 0.737444C15.0968 1.79836 15.5051 3.0703 15.5051 4.37494C15.5051 5.67959 15.0968 6.95152 14.3375 8.01244C15.0481 8.4975 15.8896 8.75473 16.75 8.74994C17.9103 8.74994 19.0231 8.28901 19.8436 7.46854C20.6641 6.64806 21.125 5.53527 21.125 4.37494C21.125 3.21462 20.6641 2.10182 19.8436 1.28135C19.0231 0.46088 17.9103 -5.63466e-05 16.75 -5.63466e-05Z" fill="#4C4C4C"/>
</svg>