<svg
                xmlns="http://www.w3.org/2000/svg"
                width="23"
                height="23"
                viewBox="0 0 30 30"
                fill="none"
              >
                <path
                  d="M16.3625 25H6.25V7.5H3.75V25C3.75 25.663 4.01339 26.2989 4.48223 26.7678C4.95107 27.2366 5.58696 27.5 6.25 27.5H17.2625C16.8028 26.7331 16.4971 25.8839 16.3625 25ZM23.75 2.5H17.5V8.75L15 6.875L12.5 8.75V2.5H11.25C10.587 2.5 9.95107 2.76339 9.48223 3.23223C9.01339 3.70107 8.75 4.33696 8.75 5V20C8.75 20.663 9.01339 21.2989 9.48223 21.7678C9.95107 22.2366 10.587 22.5 11.25 22.5H16.3625C16.5445 21.422 16.96 20.3969 17.5799 19.4964C18.1997 18.5959 19.0089 17.8417 19.9509 17.2868C20.8928 16.7319 21.9446 16.3896 23.0327 16.284C24.1208 16.1783 25.2189 16.3117 26.25 16.675V5C26.25 4.33696 25.9866 3.70107 25.5178 3.23223C25.0489 2.76339 24.413 2.5 23.75 2.5ZM25 18.75V22.5H28.75V25H25V28.75H22.5V25H18.75V22.5H22.5V18.75H25Z"
                  fill="#4C4C4C"
                />
              </svg>