<svg xmlns="http://www.w3.org/2000/svg" width="24" height="24" viewBox="0 0 24 24" fill="none">
  <rect opacity="0.01" x="24" y="24" width="24" height="24" transform="rotate(180 24 24)" fill="#00899D"/>
  <path d="M3.24005 7.29L11.7601 11.92C11.9101 12 12.0901 12 12.2401 11.92L20.7601 7.29C20.919 7.21151 21.0153 7.04531 21.0044 6.86837C20.9935 6.69144 20.8774 6.53835 20.7101 6.48L12.1901 3C12.0683 2.94999 11.9318 2.94999 11.8101 3L3.29005 6.48C3.12266 6.53835 3.00663 6.69144 2.99571 6.86837C2.98479 7.04531 3.08111 7.21151 3.24005 7.29Z" fill="#00899D"/>
  <path d="M20.7101 10.66L18.8801 9.88L12.2401 13.49C12.0901 13.57 11.9101 13.57 11.7601 13.49L5.1201 9.88L3.2901 10.66C3.13214 10.7429 3.0332 10.9066 3.0332 11.085C3.0332 11.2634 3.13214 11.4271 3.2901 11.51L11.8101 16.41C11.9574 16.5001 12.1428 16.5001 12.2901 16.41L20.8101 11.51C20.9605 11.4099 21.042 11.2338 21.0209 11.0543C20.9998 10.8749 20.8797 10.7225 20.7101 10.66V10.66Z" fill="#00899D"/>
  <path d="M20.7101 15.1L19.1501 14.42L12.2401 18.18C12.0901 18.26 11.9101 18.26 11.7601 18.18L4.85008 14.42L3.29008 15.1C3.12762 15.1843 3.02563 15.352 3.02563 15.535C3.02563 15.718 3.12762 15.8858 3.29008 15.97L11.8101 20.97C11.9601 21.05 12.1401 21.05 12.2901 20.97L20.8101 15.97C20.9651 15.8685 21.0495 15.6882 21.0284 15.5042C21.0072 15.3201 20.8841 15.1637 20.7101 15.1Z" fill="#00899D"/>
</svg>