<svg
                xmlns="http://www.w3.org/2000/svg"
                width="23"
                height="23"
                viewBox="0 0 30 30"
                fill="none"
              >
                <g clip-path="url(#clip0_10_458)">
                  <path
                    d="M11.3942 2.12843e-05C11.2268 0.0249246 11.0668 0.086378 10.9258 0.180021C10.9258 0.180021 9.46617 1.09848 7.89693 2.09194C6.3277 3.08425 4.58193 4.1781 4.1827 4.39964C4.15808 4.41033 4.13383 4.42187 4.11001 4.43425C2.66078 5.32848 2.35963 6.78925 2.3077 7.60848C2.30424 7.64656 2.3077 7.67771 2.3077 7.7181C2.29501 8.02502 2.3077 8.22233 2.3077 8.22233V23.295C2.3077 25.485 4.86117 26.5385 7.28424 26.5385C8.09194 26.5385 8.89963 26.4081 9.59193 26.1773C10.0535 25.9466 10.3846 25.485 10.3846 25.0235V12.9081C10.3846 10.2543 10.9615 9.0081 12.6923 7.96964C13.1539 7.73887 17.9931 4.39848 17.9931 4.39848C18.2239 4.16771 18.4615 3.69925 18.4615 3.3531V3.24464C18.4615 2.7831 18.2308 2.43002 17.8846 2.19925C17.5385 1.96848 17.0769 1.96848 16.7308 2.19925C16.6154 2.31464 9.57693 7.05348 8.07693 7.86118C6.57693 8.78425 5.17732 9.00694 4.83117 8.54541C4.72386 8.4381 4.6304 8.10925 4.6154 7.78848V7.71579C4.61655 7.40194 4.69732 6.81117 5.33655 6.41771C5.98501 6.05656 7.59463 5.02848 9.15924 4.03848C9.8204 3.61964 9.90232 3.57464 10.4204 3.24464C10.4886 3.52651 10.6604 3.77237 10.9017 3.93327C11.143 4.09417 11.436 4.15831 11.7225 4.11293C12.0089 4.06754 12.2677 3.91595 12.4475 3.68834C12.6272 3.46073 12.7146 3.17379 12.6923 2.88464V1.15387C12.6936 0.989404 12.6597 0.826565 12.5929 0.676267C12.5262 0.525968 12.428 0.391685 12.3051 0.282418C12.1822 0.173151 12.0373 0.0914254 11.8802 0.0427208C11.7231 -0.00598387 11.5574 -0.0205424 11.3942 2.12843e-05ZM20.625 4.03848C20.4415 4.069 20.2681 4.14342 20.1196 4.25541C20.1196 4.25541 14.3112 8.16348 13.305 8.83387C13.2928 8.84591 13.2809 8.85822 13.2692 8.87079C12.4339 9.49733 11.9389 10.2427 11.7185 10.9246C11.595 11.3093 11.5342 11.7114 11.5385 12.1154V12.4766C11.5368 12.5123 11.5368 12.5481 11.5385 12.5839V26.5385C11.5385 28.7308 14.0631 30 16.3708 30C17.4092 30 18.3462 29.7762 19.0385 29.3146C20.4231 28.5069 27.1154 23.2939 27.1154 23.2939C27.4615 23.0631 27.6923 22.7377 27.6923 22.3916V7.39156C27.6923 6.81464 27.4685 6.46848 27.0069 6.23771C26.6608 6.00694 26.0919 6.11541 25.7458 6.34618C23.8996 7.73079 18.93 11.64 17.7762 12.3323C16.1608 13.2554 14.6389 13.4862 14.0619 12.9093C13.8312 12.6785 13.8462 12.4616 13.8462 12.1154C13.8531 11.9169 13.875 11.7462 13.9189 11.61C13.9835 11.4093 14.115 11.1623 14.6031 10.7816C14.6262 10.7631 14.6146 10.7643 14.6389 10.7458C15.4731 10.1885 18.0242 8.44964 19.6881 7.31887C19.7824 7.57175 19.9623 7.7836 20.1966 7.91755C20.4309 8.0515 20.7047 8.09908 20.9705 8.05203C21.2362 8.00497 21.4771 7.86624 21.6511 7.65998C21.8252 7.45372 21.9214 7.19298 21.9231 6.9231V5.19233C21.9244 5.02787 21.8905 4.86503 21.8237 4.71473C21.7569 4.56443 21.6588 4.43015 21.5359 4.32088C21.4129 4.21161 21.2681 4.12989 21.111 4.08118C20.9539 4.03248 20.7882 4.01792 20.625 4.03848ZM25.3846 12.4766V14.7843L19.6154 19.2543V16.9466L25.3846 12.4766Z"
                    fill="#4C4C4C"
                  />
                </g>
                <defs>
                  <clipPath id="clip0_10_458">
                    <rect width="30" height="30" fill="white" />
                  </clipPath>
                </defs>
              </svg>