<svg width="536" height="320" viewBox="0 0 536 320" fill="none" xmlns="http://www.w3.org/2000/svg">
<path d="M409.824 316.405C402.971 310.614 398.809 301.467 399.9 292.561C400.992 283.656 407.753 275.469 416.524 273.578C425.294 271.687 435.292 276.922 437.956 285.489C439.422 268.971 441.111 251.762 449.893 237.695C457.845 224.959 471.618 215.845 486.544 214.215C501.47 212.584 517.186 218.742 526.495 230.523C535.804 242.304 538.083 259.432 531.563 272.958C526.76 282.922 517.912 290.337 508.641 296.37C478.682 315.699 442.751 323.56 407.458 318.505L409.824 316.405Z" fill="#F2F2F2"/>
<path d="M511.734 219.083C499.418 229.115 488.12 240.335 478.002 252.58C462.167 271.678 449.354 293.091 440.008 316.072C439.324 317.748 442.046 318.478 442.723 316.82C458.014 279.471 482.426 246.552 513.725 221.074C515.131 219.93 513.128 217.948 511.734 219.083Z" fill="white"/>
<path d="M172.316 314.832C181.729 306.878 187.446 294.314 185.947 282.082C184.447 269.851 175.161 258.606 163.114 256.009C151.068 253.411 137.336 260.601 133.677 272.369C131.664 249.682 129.343 226.044 117.281 206.724C106.36 189.23 87.4431 176.712 66.9417 174.473C46.4404 172.234 24.8551 180.692 12.0691 196.873C-0.716845 213.055 -3.84743 236.579 5.10752 255.157C11.7043 268.842 23.8579 279.027 36.5919 287.313C77.2177 313.748 127.614 324.773 175.567 317.716" fill="#F2F2F2"/>
<path d="M32.3425 181.16C49.2587 194.939 64.7774 210.349 78.6744 227.168C92.5736 243.97 104.81 262.08 115.213 281.244C121.027 291.994 126.25 303.054 130.859 314.374C131.799 316.677 128.06 317.679 127.13 315.402C118.967 295.445 108.868 276.337 96.9769 258.35C85.1437 240.429 71.6001 223.697 56.5362 208.391C48.016 199.738 39.0264 191.561 29.6082 183.895C27.6778 182.323 30.428 179.601 32.3425 181.16L32.3425 181.16Z" fill="white"/>
<path d="M384.234 319.323H159.662V88.906C159.662 39.883 199.545 0 248.568 0H295.328C344.351 0 384.234 39.883 384.234 88.906V319.323Z" fill="#F2F2F2"/>
<path d="M337.474 319.323H159.662V88.906C159.613 70.1215 165.561 51.8118 176.64 36.6426C177.049 36.0859 177.456 35.5364 177.876 34.993C183.235 27.9642 189.613 21.7741 196.798 16.6269C197.204 16.3316 197.612 16.0414 198.025 15.7512C204.038 11.5904 210.542 8.18902 217.389 5.6245C217.796 5.47038 218.21 5.31596 218.624 5.16785C224.816 2.95786 231.236 1.44402 237.764 0.654299C238.168 0.599018 238.584 0.555759 238.999 0.5125C245.361 -0.167659 251.776 -0.167659 258.137 0.5125C258.552 0.555759 258.967 0.599012 259.377 0.654891C265.903 1.44467 272.321 2.95831 278.512 5.16788C278.926 5.31599 279.34 5.4704 279.748 5.62482C286.51 8.15699 292.938 11.5076 298.886 15.6019C299.3 15.8858 299.713 16.176 300.121 16.4662C304.148 19.3412 307.932 22.5441 311.432 26.0422C314.238 28.8481 316.854 31.839 319.26 34.9948C319.679 35.5365 320.087 36.0859 320.494 36.6417C331.574 51.811 337.523 70.1211 337.474 88.906V319.323Z" fill="#CCCCCC"/>
<path d="M323.015 216.266C328.452 216.266 332.859 211.859 332.859 206.422C332.859 200.985 328.452 196.578 323.015 196.578C317.578 196.578 313.171 200.985 313.171 206.422C313.171 211.859 317.578 216.266 323.015 216.266Z" fill="#6C63FF"/>
<path d="M365.837 312.422H358.294L354.705 283.327L365.838 283.328L365.837 312.422Z" fill="#CCEDF2"/>
<path d="M352.906 310.267H367.453V319.426H343.746C343.746 318.223 343.983 317.032 344.444 315.921C344.904 314.81 345.579 313.8 346.429 312.949C347.28 312.099 348.289 311.424 349.401 310.964C350.512 310.503 351.703 310.267 352.906 310.267Z" fill="#2F2E41"/>
<path d="M403.368 312.422H395.825L392.236 283.327L403.369 283.328L403.368 312.422Z" fill="#CCEDF2"/>
<path d="M390.437 310.267H404.984V319.426H381.278C381.278 318.223 381.515 317.032 381.975 315.921C382.435 314.81 383.11 313.8 383.96 312.949C384.811 312.099 385.821 311.424 386.932 310.964C388.043 310.503 389.234 310.267 390.437 310.267Z" fill="#2F2E41"/>
<path d="M327.997 208.372C327.455 207.573 327.094 206.664 326.94 205.71C326.787 204.756 326.845 203.78 327.109 202.85C327.374 201.921 327.839 201.061 328.472 200.331C329.105 199.601 329.89 199.018 330.772 198.624L356.414 127.951L369.031 134.836L339.754 202.375C340.317 203.901 340.301 205.581 339.709 207.096C339.116 208.611 337.989 209.856 336.54 210.595C335.09 211.335 333.42 211.517 331.846 211.107C330.272 210.697 328.902 209.724 327.997 208.372Z" fill="#CCEDF2"/>
<path d="M399.515 221.652C398.677 221.171 397.954 220.513 397.398 219.723C396.842 218.933 396.465 218.03 396.296 217.079C396.126 216.128 396.167 215.151 396.416 214.217C396.664 213.283 397.115 212.415 397.735 211.674L389.792 136.914L404.15 137.57L407.452 211.107C408.627 212.231 409.349 213.748 409.481 215.37C409.613 216.991 409.146 218.605 408.167 219.905C407.189 221.205 405.768 222.1 404.173 222.422C402.579 222.744 400.921 222.47 399.515 221.652Z" fill="#CCEDF2"/>
<path d="M376.608 114.86C384.954 114.86 391.72 108.095 391.72 99.7486C391.72 91.4027 384.954 84.637 376.608 84.637C368.262 84.637 361.497 91.4027 361.497 99.7486C361.497 108.095 368.262 114.86 376.608 114.86Z" fill="#CCEDF2"/>
<path d="M399.419 204.649H353.86L353.915 204.295C353.997 203.765 362.034 151.112 356.106 133.886C355.511 132.193 355.564 130.34 356.253 128.684C356.943 127.027 358.22 125.684 359.841 124.913H359.841C368.314 120.923 384.579 116.01 398.307 127.934C400.327 129.717 401.905 131.946 402.915 134.445C403.925 136.943 404.34 139.642 404.127 142.329L399.419 204.649Z" fill="#6C63FF"/>
<path d="M362.61 158.893L342.099 154.732L351.713 131.949C352.289 129.742 353.716 127.853 355.682 126.698C357.648 125.542 359.992 125.213 362.2 125.783C364.408 126.353 366.299 127.775 367.46 129.738C368.621 131.701 368.955 134.044 368.391 136.254L362.61 158.893Z" fill="#6C63FF"/>
<path d="M388.88 166.619L387.646 138.353C386.711 133.039 389.753 128.016 394.431 127.195C399.111 126.377 403.68 130.063 404.619 135.415L409.254 161.827L388.88 166.619Z" fill="#6C63FF"/>
<path d="M397.903 201.265C405.233 229.184 406.033 264.68 404.056 303.399L394.211 302.169L376.369 228.337L366.524 303.399L355.449 302.784C352.141 262.158 348.919 227.282 354.219 204.342L397.903 201.265Z" fill="#2F2E41"/>
<path d="M386.565 111.427C383.746 114.43 378.511 112.818 378.143 108.716C378.115 108.397 378.117 108.077 378.15 107.758C378.339 105.941 379.389 104.291 379.138 102.373C379.081 101.895 378.903 101.44 378.621 101.051C376.374 98.0423 371.101 102.396 368.981 99.6728C367.681 98.003 369.209 95.3738 368.211 93.5075C366.894 91.0442 362.994 92.2594 360.549 90.9103C357.828 89.4094 357.99 85.2344 359.782 82.6949C361.966 79.5979 365.796 77.9453 369.579 77.7072C373.361 77.469 377.117 78.4915 380.649 79.8676C384.661 81.4312 388.64 83.5922 391.109 87.1201C394.111 91.4105 394.4 97.1784 392.899 102.195C391.985 105.247 388.868 108.975 386.565 111.427Z" fill="#2F2E41"/>
<path d="M516.813 319.719H62.5651C62.3711 319.719 62.1853 319.641 62.0484 319.504C61.9115 319.367 61.8346 319.181 61.8346 318.987C61.8346 318.793 61.9115 318.607 62.0484 318.469C62.1853 318.332 62.3711 318.255 62.5651 318.254H516.813C517.007 318.255 517.192 318.332 517.329 318.469C517.466 318.607 517.543 318.793 517.543 318.987C517.543 319.181 517.466 319.367 517.329 319.504C517.192 319.641 517.007 319.719 516.813 319.719Z" fill="#3F3D56"/>
<path d="M288.56 252.567H208.575C207.522 252.573 206.509 252.16 205.76 251.42C205.01 250.68 204.584 249.673 204.576 248.62V70.0883C204.584 69.0349 205.01 68.0278 205.76 67.2878C206.509 66.5478 207.522 66.1355 208.575 66.1411H288.56C289.613 66.1355 290.626 66.5478 291.376 67.2878C292.126 68.0278 292.551 69.0349 292.559 70.0883V248.62C292.551 249.673 292.126 250.68 291.376 251.42C290.626 252.16 289.613 252.573 288.56 252.567Z" fill="white"/>
<path d="M292.559 123.908H204.576V125.139H292.559V123.908Z" fill="#CCCCCC"/>
<path d="M292.867 194.117H204.884V195.347H292.867V194.117Z" fill="#CCCCCC"/>
<path d="M233.494 66.1412H232.263V253.182H233.494V66.1412Z" fill="#CCCCCC"/>
<path d="M264.257 66.1412H263.027V253.182H264.257V66.1412Z" fill="#CCCCCC"/>
</svg>
