<svg width="107" height="55" viewBox="0 0 107 55" fill="none" xmlns="http://www.w3.org/2000/svg">
<path d="M0.875 33V30.2656L3.29688 29.7969V13.4688L0.875 13V10.25H3.29688H11.7031C13.4427 10.25 14.9427 10.5573 16.2031 11.1719C17.4635 11.776 18.4323 12.625 19.1094 13.7188C19.7865 14.8021 20.125 16.0677 20.125 17.5156C20.125 18.9635 19.7865 20.2344 19.1094 21.3281C18.4323 22.4115 17.4635 23.2552 16.2031 23.8594C14.9427 24.4531 13.4427 24.75 11.7031 24.75H7.85938V29.7969L10.2969 30.2656V33H0.875ZM7.85938 21.2344H11.7031C12.974 21.2344 13.9323 20.8906 14.5781 20.2031C15.2344 19.5052 15.5625 18.6198 15.5625 17.5469C15.5625 16.4531 15.2344 15.5521 14.5781 14.8438C13.9323 14.125 12.974 13.7656 11.7031 13.7656H7.85938V21.2344ZM29.5781 33.3281C27.9635 33.3281 26.5521 32.974 25.3438 32.2656C24.1354 31.5469 23.1979 30.5625 22.5312 29.3125C21.875 28.0625 21.5469 26.6354 21.5469 25.0312V24.4062C21.5469 22.7292 21.8594 21.2448 22.4844 19.9531C23.1094 18.651 23.9896 17.6302 25.125 16.8906C26.2708 16.1406 27.6198 15.7708 29.1719 15.7812C30.7031 15.7812 31.9896 16.0833 33.0312 16.6875C34.0729 17.2917 34.8646 18.1615 35.4062 19.2969C35.9479 20.4323 36.2188 21.8073 36.2188 23.4219V25.9062H26.2812L26.25 26C26.3125 26.7396 26.4948 27.401 26.7969 27.9844C27.1094 28.5573 27.5469 29.0104 28.1094 29.3438C28.6719 29.6667 29.3542 29.8281 30.1562 29.8281C30.9896 29.8281 31.7656 29.724 32.4844 29.5156C33.2135 29.2969 33.9219 28.9792 34.6094 28.5625L35.8438 31.375C35.1458 31.9375 34.2656 32.4062 33.2031 32.7812C32.151 33.1458 30.9427 33.3281 29.5781 33.3281ZM26.3125 22.8906H31.9531V22.4844C31.9531 21.7969 31.8594 21.2083 31.6719 20.7188C31.4948 20.2188 31.2031 19.8333 30.7969 19.5625C30.401 19.2917 29.8854 19.1562 29.25 19.1562C28.6458 19.1562 28.1354 19.3177 27.7188 19.6406C27.3021 19.9531 26.974 20.3854 26.7344 20.9375C26.5052 21.4896 26.349 22.1146 26.2656 22.8125L26.3125 22.8906ZM38.6719 33V30.2656L40.8594 29.7969V19.3125L38.4375 18.8438V16.0938H45.1094L45.2812 18.1875L45.3125 18.5625C45.7292 17.6458 46.2448 16.9531 46.8594 16.4844C47.474 16.0156 48.2083 15.7812 49.0625 15.7812C49.3333 15.7812 49.6302 15.8073 49.9531 15.8594C50.276 15.901 50.5625 15.9583 50.8125 16.0312L50.3281 20.2344L48.0625 20.1094C47.4167 20.0781 46.8906 20.1875 46.4844 20.4375C46.0885 20.6875 45.7344 21.0469 45.4219 21.5156V29.7969L47.6094 30.2656V33H38.6719ZM52.1875 39.5V36.75L54.3906 36.2812V19.3125L51.9531 18.8438V16.0938H58.5781L58.7969 18.0625C59.2969 17.3333 59.901 16.7708 60.6094 16.375C61.3177 15.9792 62.1615 15.7812 63.1406 15.7812C64.5052 15.7812 65.6719 16.1562 66.6406 16.9062C67.6094 17.6458 68.349 18.6823 68.8594 20.0156C69.3802 21.349 69.6406 22.9062 69.6406 24.6875V25.0156C69.6406 26.6823 69.3802 28.1406 68.8594 29.3906C68.349 30.6302 67.6042 31.599 66.625 32.2969C65.6562 32.9844 64.4844 33.3281 63.1094 33.3281C62.2031 33.3281 61.401 33.1667 60.7031 32.8438C60.0156 32.5104 59.4271 32.026 58.9375 31.3906V36.2812L61.1406 36.75V39.5H52.1875ZM61.75 29.8281C62.9167 29.8281 63.7604 29.3958 64.2812 28.5312C64.8125 27.6667 65.0781 26.4948 65.0781 25.0156V24.6875C65.0781 23.6146 64.9583 22.6823 64.7188 21.8906C64.4792 21.0885 64.1094 20.4635 63.6094 20.0156C63.1198 19.5573 62.4896 19.3281 61.7188 19.3281C61.0938 19.3281 60.5417 19.4688 60.0625 19.75C59.5938 20.0312 59.2188 20.4323 58.9375 20.9531V28.3594C59.2188 28.8385 59.5938 29.2031 60.0625 29.4531C60.5417 29.7031 61.1042 29.8281 61.75 29.8281ZM78.8438 33.3281C77.0625 33.3281 75.6615 32.7656 74.6406 31.6406C73.6302 30.5052 73.125 28.7448 73.125 26.3594V19.3125L71.2656 18.8438V16.0938H73.125H77.6875V26.3906C77.6875 27.599 77.8958 28.4688 78.3125 29C78.7396 29.5208 79.3802 29.7812 80.2344 29.7812C80.9115 29.7812 81.5104 29.651 82.0312 29.3906C82.5521 29.1198 82.9792 28.7396 83.3125 28.25V19.3125L81.2969 18.8438V16.0938H83.3125H87.875V29.7969L89.9062 30.2656V33H83.875L83.5625 30.8594C83.0312 31.651 82.3646 32.2604 81.5625 32.6875C80.7604 33.1146 79.8542 33.3281 78.8438 33.3281ZM98.8594 33.3281C97.599 33.3281 96.4219 33.2083 95.3281 32.9688C94.2448 32.7292 93.2031 32.3854 92.2031 31.9375L92.1562 27.1562H95.3281L95.9375 29.5938C96.2917 29.7708 96.6771 29.9115 97.0938 30.0156C97.5208 30.1198 98.0052 30.1719 98.5469 30.1719C99.5677 30.1719 100.286 30.0052 100.703 29.6719C101.12 29.3385 101.328 28.9219 101.328 28.4219C101.328 27.9531 101.104 27.5417 100.656 27.1875C100.219 26.8229 99.3385 26.5052 98.0156 26.2344C96.0156 25.8177 94.5417 25.1719 93.5938 24.2969C92.6458 23.4219 92.1719 22.3021 92.1719 20.9375C92.1719 20 92.4062 19.1458 92.875 18.375C93.3542 17.6042 94.0781 16.9844 95.0469 16.5156C96.026 16.0469 97.276 15.8125 98.7969 15.8125C100.068 15.8125 101.229 15.9375 102.281 16.1875C103.344 16.4271 104.234 16.7448 104.953 17.1406L105 21.7656H101.844L101.359 19.5469C101.078 19.3385 100.745 19.1823 100.359 19.0781C99.9844 18.974 99.5573 18.9219 99.0781 18.9219C98.276 18.9219 97.6615 19.0833 97.2344 19.4062C96.8073 19.7292 96.5938 20.1458 96.5938 20.6562C96.5938 20.9479 96.6667 21.2188 96.8125 21.4688C96.9688 21.7188 97.2708 21.9531 97.7188 22.1719C98.1667 22.3906 98.8177 22.599 99.6719 22.7969C101.766 23.276 103.292 23.9167 104.25 24.7188C105.208 25.5104 105.688 26.625 105.688 28.0625C105.688 29.6354 105.115 30.9062 103.969 31.875C102.833 32.8438 101.13 33.3281 98.8594 33.3281Z" fill="white"/>
<path d="M14.1406 50.2051C13.0404 50.2051 12.2038 49.9382 11.6309 49.4043C11.0579 48.8639 10.7715 48.1055 10.7715 47.1289C10.7715 46.4583 10.9538 45.8757 11.3184 45.3809C11.6895 44.8796 12.2233 44.4922 12.9199 44.2188C13.6165 43.9388 14.4499 43.7988 15.4199 43.7988H17.3047V42.7637C17.3047 42.1257 17.1094 41.6309 16.7188 41.2793C16.3346 40.9277 15.791 40.752 15.0879 40.752C14.6452 40.752 14.2611 40.8073 13.9355 40.918C13.61 41.0221 13.3138 41.1686 13.0469 41.3574L12.8418 42.832H11.3574V40.4102C11.8327 40.026 12.3861 39.7363 13.0176 39.541C13.6491 39.3392 14.349 39.2383 15.1172 39.2383C16.3997 39.2383 17.4056 39.5443 18.1348 40.1562C18.8639 40.7682 19.2285 41.6439 19.2285 42.7832V47.8711C19.2285 48.0078 19.2285 48.1413 19.2285 48.2715C19.235 48.4017 19.2448 48.5319 19.2578 48.6621L20.2832 48.7695V50H17.5195C17.4609 49.7135 17.4154 49.4564 17.3828 49.2285C17.3503 49.0007 17.3275 48.7728 17.3145 48.5449C16.9434 49.0202 16.4779 49.4173 15.918 49.7363C15.3646 50.0488 14.7721 50.2051 14.1406 50.2051ZM14.4238 48.5938C15.0618 48.5938 15.6445 48.4408 16.1719 48.1348C16.6992 47.8288 17.0768 47.4609 17.3047 47.0312V45.1172H15.3516C14.4661 45.1172 13.8021 45.3288 13.3594 45.752C12.9167 46.1751 12.6953 46.6471 12.6953 47.168C12.6953 47.6302 12.8385 47.985 13.125 48.2324C13.4115 48.4733 13.8444 48.5938 14.4238 48.5938ZM21.4844 54.0625V52.8223L22.9785 52.5488V40.9473L21.3867 40.6738V39.4336H24.6289L24.8047 40.7227C25.1562 40.2409 25.5827 39.873 26.084 39.6191C26.5918 39.3652 27.1777 39.2383 27.8418 39.2383C28.7142 39.2383 29.4596 39.4759 30.0781 39.9512C30.6966 40.4199 31.1686 41.0807 31.4941 41.9336C31.8197 42.7799 31.9824 43.7728 31.9824 44.9121V45.1172C31.9824 46.1328 31.8164 47.0215 31.4844 47.7832C31.1589 48.5449 30.6901 49.1406 30.0781 49.5703C29.4661 49.9935 28.7305 50.2051 27.8711 50.2051C27.2201 50.2051 26.6471 50.0977 26.1523 49.8828C25.6641 49.6615 25.2474 49.3359 24.9023 48.9062V52.5488L26.582 52.8223V54.0625H21.4844ZM27.2754 48.7012C28.1868 48.7012 28.877 48.3691 29.3457 47.7051C29.8145 47.041 30.0488 46.1784 30.0488 45.1172V44.9121C30.0488 44.1048 29.9447 43.3952 29.7363 42.7832C29.528 42.1647 29.2155 41.6797 28.7988 41.3281C28.3887 40.9766 27.8743 40.8008 27.2559 40.8008C26.709 40.8008 26.2402 40.9245 25.8496 41.1719C25.459 41.4193 25.1432 41.7578 24.9023 42.1875V47.334C25.1432 47.7702 25.4557 48.1087 25.8398 48.3496C26.2305 48.584 26.709 48.7012 27.2754 48.7012ZM33.1836 54.0625V52.8223L34.6777 52.5488V40.9473L33.0859 40.6738V39.4336H36.3281L36.5039 40.7227C36.8555 40.2409 37.2819 39.873 37.7832 39.6191C38.291 39.3652 38.877 39.2383 39.541 39.2383C40.4134 39.2383 41.1589 39.4759 41.7773 39.9512C42.3958 40.4199 42.8678 41.0807 43.1934 41.9336C43.5189 42.7799 43.6816 43.7728 43.6816 44.9121V45.1172C43.6816 46.1328 43.5156 47.0215 43.1836 47.7832C42.8581 48.5449 42.3893 49.1406 41.7773 49.5703C41.1654 49.9935 40.4297 50.2051 39.5703 50.2051C38.9193 50.2051 38.3464 50.0977 37.8516 49.8828C37.3633 49.6615 36.9466 49.3359 36.6016 48.9062V52.5488L38.2812 52.8223V54.0625H33.1836ZM38.9746 48.7012C39.8861 48.7012 40.5762 48.3691 41.0449 47.7051C41.5137 47.041 41.748 46.1784 41.748 45.1172V44.9121C41.748 44.1048 41.6439 43.3952 41.4355 42.7832C41.2272 42.1647 40.9147 41.6797 40.498 41.3281C40.0879 40.9766 39.5736 40.8008 38.9551 40.8008C38.4082 40.8008 37.9395 40.9245 37.5488 41.1719C37.1582 41.4193 36.8424 41.7578 36.6016 42.1875V47.334C36.8424 47.7702 37.1549 48.1087 37.5391 48.3496C37.9297 48.584 38.4082 48.7012 38.9746 48.7012Z" fill="white"/>
</svg>
